<?xml version="1.0" encoding="UTF-8"?>
<!DOCTYPE svg PUBLIC "-//W3C//DTD SVG 1.1//EN" "http://www.w3.org/Graphics/SVG/1.1/DTD/svg11.dtd">
<svg xmlns="http://www.w3.org/2000/svg" version="1.1" width="918px" height="166px" style="shape-rendering:geometricPrecision; text-rendering:geometricPrecision; image-rendering:optimizeQuality; fill-rule:evenodd; clip-rule:evenodd" xmlns:xlink="http://www.w3.org/1999/xlink">
<g><path style="opacity:1" fill="#beebdb" d="M -0.5,-0.5 C 133.167,-0.5 266.833,-0.5 400.5,-0.5C 394.347,0.327935 388.013,0.827935 381.5,1C 389.834,1.5205 390.167,2.18717 382.5,3C 387.167,3.33333 391.833,3.66667 396.5,4C 392.167,4.33333 387.833,4.66667 383.5,5C 389.175,5.46406 389.508,6.13073 384.5,7C 391.167,7.33333 397.833,7.66667 404.5,8C 398.167,8.33333 391.833,8.66667 385.5,9C 393.834,9.5205 394.167,10.1872 386.5,11C 392.5,11.3333 398.5,11.6667 404.5,12C 398.833,12.3333 393.167,12.6667 387.5,13C 387.957,13.414 388.291,13.914 388.5,14.5C 395.142,15.3309 401.809,15.8309 408.5,16C 402.167,16.3333 395.833,16.6667 389.5,17C 397.834,17.5205 398.167,18.1872 390.5,19C 395.167,19.3333 399.833,19.6667 404.5,20C 400.167,20.3333 395.833,20.6667 391.5,21C 397.175,21.4641 397.508,22.1307 392.5,23C 399.167,23.3333 405.833,23.6667 412.5,24C 406.167,24.3333 399.833,24.6667 393.5,25C 401.834,25.5205 402.167,26.1872 394.5,27C 400.5,27.3333 406.5,27.6667 412.5,28C 406.833,28.3333 401.167,28.6667 395.5,29C 395.957,29.414 396.291,29.914 396.5,30.5C 403.142,31.3309 409.809,31.8309 416.5,32C 410.167,32.3333 403.833,32.6667 397.5,33C 405.834,33.5205 406.167,34.1872 398.5,35C 403.167,35.3333 407.833,35.6667 412.5,36C 408.167,36.3333 403.833,36.6667 399.5,37C 405.175,37.4641 405.508,38.1307 400.5,39C 407.167,39.3333 413.833,39.6667 420.5,40C 414.5,40.3333 408.5,40.6667 402.5,41C 409.503,41.4966 409.837,42.1632 403.5,43C 409.167,43.3333 414.833,43.6667 420.5,44C 415.167,44.3333 409.833,44.6667 404.5,45C 408.852,45.4189 409.185,46.0855 405.5,47C 411.833,47.3333 418.167,47.6667 424.5,48C 418.5,48.3333 412.5,48.6667 406.5,49C 413.503,49.4966 413.837,50.1632 407.5,51C 413.167,51.3333 418.833,51.6667 424.5,52C 419.167,52.3333 413.833,52.6667 408.5,53C 412.852,53.4189 413.185,54.0855 409.5,55C 415.833,55.3333 422.167,55.6667 428.5,56C 422.5,56.3333 416.5,56.6667 410.5,57C 412.5,57.3333 414.5,57.6667 416.5,58C 415.167,58.3333 413.833,58.6667 412.5,59C 417.833,59.3333 423.167,59.6667 428.5,60C 423.5,60.3333 418.5,60.6667 413.5,61C 416.544,61.3589 416.878,62.0255 414.5,63C 421.833,63.3333 429.167,63.6667 436.5,64C 435.584,64.2784 434.918,64.7784 434.5,65.5C 435.167,76.0076 435.833,86.6742 436.5,97.5C 437.167,88.0086 437.833,78.6753 438.5,69.5C 438.333,80.505 438.5,91.505 439,102.5C 440.264,104.607 442.097,105.607 444.5,105.5C 443.737,106.268 442.737,106.768 441.5,107C 447.833,107.333 454.167,107.667 460.5,108C 454.833,108.333 449.167,108.667 443.5,109C 443.957,109.414 444.291,109.914 444.5,110.5C 451.142,111.331 457.809,111.831 464.5,112C 458.167,112.333 451.833,112.667 445.5,113C 447.833,113.333 450.167,113.667 452.5,114C 450.833,114.333 449.167,114.667 447.5,115C 453.167,115.333 458.833,115.667 464.5,116C 459.167,116.333 453.833,116.667 448.5,117C 452.852,117.419 453.185,118.086 449.5,119C 455.833,119.333 462.167,119.667 468.5,120C 462.833,120.333 457.167,120.667 451.5,121C 454.5,121.333 457.5,121.667 460.5,122C 457.833,122.333 455.167,122.667 452.5,123C 457.833,123.333 463.167,123.667 468.5,124C 463.833,124.333 459.167,124.667 454.5,125C 456.301,125.317 456.634,125.984 455.5,127C 462.5,127.333 469.5,127.667 476.5,128C 469.833,128.333 463.167,128.667 456.5,129C 459.167,129.333 461.833,129.667 464.5,130C 462.5,130.333 460.5,130.667 458.5,131C 464.5,131.333 470.5,131.667 476.5,132C 470.833,132.333 465.167,132.667 459.5,133C 460.167,133.667 460.833,134.333 461.5,135C 469.167,135.333 476.833,135.667 484.5,136C 477.167,136.333 469.833,136.667 462.5,137C 464.5,137.333 466.5,137.667 468.5,138C 467.167,138.333 465.833,138.667 464.5,139C 471.167,139.333 477.833,139.667 484.5,140C 478.167,140.333 471.833,140.667 465.5,141C 466.5,141.333 467.5,141.667 468.5,142C 468.167,142.333 467.833,142.667 467.5,143C 474.5,143.333 481.5,143.667 488.5,144C 481.833,144.333 475.167,144.667 468.5,145C 471.167,145.333 473.833,145.667 476.5,146C 474.5,146.333 472.5,146.667 470.5,147C 476.5,147.333 482.5,147.667 488.5,148C 482.833,148.333 477.167,148.667 471.5,149C 473.167,149.333 474.833,149.667 476.5,150C 475.5,150.333 474.5,150.667 473.5,151C 479.833,151.333 486.167,151.667 492.5,152C 486.5,152.333 480.5,152.667 474.5,153C 477.833,153.333 481.167,153.667 484.5,154C 481.833,154.333 479.167,154.667 476.5,155C 481.833,155.333 487.167,155.667 492.5,156C 487.5,156.333 482.5,156.667 477.5,157C 478.5,157.333 479.5,157.667 480.5,158C 480.167,158.333 479.833,158.667 479.5,159C 486.5,159.333 493.5,159.667 500.5,160C 494.167,160.333 487.833,160.667 481.5,161C 489.834,161.521 490.167,162.187 482.5,163C 488.5,163.333 494.5,163.667 500.5,164C 494.984,164.173 489.651,164.673 484.5,165.5C 322.833,165.5 161.167,165.5 -0.5,165.5C -0.5,110.167 -0.5,54.8333 -0.5,-0.5 Z"/></g>
<g><path style="opacity:1" fill="#c2ecdd" d="M 400.5,-0.5 C 572.833,-0.5 745.167,-0.5 917.5,-0.5C 917.5,54.8333 917.5,110.167 917.5,165.5C 773.167,165.5 628.833,165.5 484.5,165.5C 489.651,164.673 494.984,164.173 500.5,164C 494.5,163.667 488.5,163.333 482.5,163C 490.167,162.187 489.834,161.521 481.5,161C 487.833,160.667 494.167,160.333 500.5,160C 493.5,159.667 486.5,159.333 479.5,159C 479.833,158.667 480.167,158.333 480.5,158C 479.5,157.667 478.5,157.333 477.5,157C 482.5,156.667 487.5,156.333 492.5,156C 487.167,155.667 481.833,155.333 476.5,155C 479.167,154.667 481.833,154.333 484.5,154C 481.167,153.667 477.833,153.333 474.5,153C 480.5,152.667 486.5,152.333 492.5,152C 486.167,151.667 479.833,151.333 473.5,151C 474.5,150.667 475.5,150.333 476.5,150C 474.833,149.667 473.167,149.333 471.5,149C 477.167,148.667 482.833,148.333 488.5,148C 482.5,147.667 476.5,147.333 470.5,147C 472.5,146.667 474.5,146.333 476.5,146C 473.833,145.667 471.167,145.333 468.5,145C 475.167,144.667 481.833,144.333 488.5,144C 481.5,143.667 474.5,143.333 467.5,143C 467.833,142.667 468.167,142.333 468.5,142C 467.5,141.667 466.5,141.333 465.5,141C 471.833,140.667 478.167,140.333 484.5,140C 477.833,139.667 471.167,139.333 464.5,139C 465.833,138.667 467.167,138.333 468.5,138C 466.5,137.667 464.5,137.333 462.5,137C 469.833,136.667 477.167,136.333 484.5,136C 476.833,135.667 469.167,135.333 461.5,135C 460.833,134.333 460.167,133.667 459.5,133C 465.167,132.667 470.833,132.333 476.5,132C 470.5,131.667 464.5,131.333 458.5,131C 460.5,130.667 462.5,130.333 464.5,130C 461.833,129.667 459.167,129.333 456.5,129C 463.167,128.667 469.833,128.333 476.5,128C 469.5,127.667 462.5,127.333 455.5,127C 456.634,125.984 456.301,125.317 454.5,125C 459.167,124.667 463.833,124.333 468.5,124C 463.167,123.667 457.833,123.333 452.5,123C 455.167,122.667 457.833,122.333 460.5,122C 457.5,121.667 454.5,121.333 451.5,121C 457.167,120.667 462.833,120.333 468.5,120C 462.167,119.667 455.833,119.333 449.5,119C 453.185,118.086 452.852,117.419 448.5,117C 453.833,116.667 459.167,116.333 464.5,116C 458.833,115.667 453.167,115.333 447.5,115C 449.167,114.667 450.833,114.333 452.5,114C 450.167,113.667 447.833,113.333 445.5,113C 451.833,112.667 458.167,112.333 464.5,112C 457.809,111.831 451.142,111.331 444.5,110.5C 444.291,109.914 443.957,109.414 443.5,109C 449.167,108.667 454.833,108.333 460.5,108C 454.167,107.667 447.833,107.333 441.5,107C 442.737,106.768 443.737,106.268 444.5,105.5C 447.85,105.665 451.183,105.498 454.5,105C 455.931,104.535 457.097,103.701 458,102.5C 458.667,90.8333 458.667,79.1667 458,67.5C 457.5,67 457,66.5 456.5,66C 451.167,65.3333 445.833,65.3333 440.5,66C 439.177,66.8159 438.511,67.9826 438.5,69.5C 437.833,78.6753 437.167,88.0086 436.5,97.5C 435.833,86.6742 435.167,76.0076 434.5,65.5C 434.918,64.7784 435.584,64.2784 436.5,64C 429.167,63.6667 421.833,63.3333 414.5,63C 416.878,62.0255 416.544,61.3589 413.5,61C 418.5,60.6667 423.5,60.3333 428.5,60C 423.167,59.6667 417.833,59.3333 412.5,59C 413.833,58.6667 415.167,58.3333 416.5,58C 414.5,57.6667 412.5,57.3333 410.5,57C 416.5,56.6667 422.5,56.3333 428.5,56C 422.167,55.6667 415.833,55.3333 409.5,55C 413.185,54.0855 412.852,53.4189 408.5,53C 413.833,52.6667 419.167,52.3333 424.5,52C 418.833,51.6667 413.167,51.3333 407.5,51C 413.837,50.1632 413.503,49.4966 406.5,49C 412.5,48.6667 418.5,48.3333 424.5,48C 418.167,47.6667 411.833,47.3333 405.5,47C 409.185,46.0855 408.852,45.4189 404.5,45C 409.833,44.6667 415.167,44.3333 420.5,44C 414.833,43.6667 409.167,43.3333 403.5,43C 409.837,42.1632 409.503,41.4966 402.5,41C 408.5,40.6667 414.5,40.3333 420.5,40C 413.833,39.6667 407.167,39.3333 400.5,39C 405.508,38.1307 405.175,37.4641 399.5,37C 403.833,36.6667 408.167,36.3333 412.5,36C 407.833,35.6667 403.167,35.3333 398.5,35C 406.167,34.1872 405.834,33.5205 397.5,33C 403.833,32.6667 410.167,32.3333 416.5,32C 409.809,31.8309 403.142,31.3309 396.5,30.5C 396.291,29.914 395.957,29.414 395.5,29C 401.167,28.6667 406.833,28.3333 412.5,28C 406.5,27.6667 400.5,27.3333 394.5,27C 402.167,26.1872 401.834,25.5205 393.5,25C 399.833,24.6667 406.167,24.3333 412.5,24C 405.833,23.6667 399.167,23.3333 392.5,23C 397.508,22.1307 397.175,21.4641 391.5,21C 395.833,20.6667 400.167,20.3333 404.5,20C 399.833,19.6667 395.167,19.3333 390.5,19C 398.167,18.1872 397.834,17.5205 389.5,17C 395.833,16.6667 402.167,16.3333 408.5,16C 401.809,15.8309 395.142,15.3309 388.5,14.5C 388.291,13.914 387.957,13.414 387.5,13C 393.167,12.6667 398.833,12.3333 404.5,12C 398.5,11.6667 392.5,11.3333 386.5,11C 394.167,10.1872 393.834,9.5205 385.5,9C 391.833,8.66667 398.167,8.33333 404.5,8C 397.833,7.66667 391.167,7.33333 384.5,7C 389.508,6.13073 389.175,5.46406 383.5,5C 387.833,4.66667 392.167,4.33333 396.5,4C 391.833,3.66667 387.167,3.33333 382.5,3C 390.167,2.18717 389.834,1.5205 381.5,1C 388.013,0.827935 394.347,0.327935 400.5,-0.5 Z"/></g>
<g><path style="opacity:1" fill="#1c1e1d" d="M 53.5,37.5 C 58.5805,37.2497 63.5805,37.7497 68.5,39C 74.6224,42.7933 80.4557,46.96 86,51.5C 92.6236,46.2246 99.7903,41.7246 107.5,38C 130.845,37.681 141.345,49.181 139,72.5C 135.933,80.3054 131.599,87.3054 126,93.5C 112.651,106.35 99.1508,119.017 85.5,131.5C 71.2112,118.713 57.3779,105.379 44,91.5C 37.2831,83.8983 33.1164,75.0649 31.5,65C 33.2676,51.2612 40.6009,42.0946 53.5,37.5 Z"/></g>
<g><path style="opacity:1" fill="#bae8d7" d="M 53.5,40.5 C 61.3574,39.2313 68.3574,41.0646 74.5,46C 78.3142,48.9798 81.9809,52.1465 85.5,55.5C 91.4818,50.5088 97.8151,46.0088 104.5,42C 120.916,37.7877 131.75,43.621 137,59.5C 137.924,68.7299 135.591,77.0632 130,84.5C 116.054,99.7792 101.387,114.446 86,128.5C 70.8113,115.4 56.478,101.4 43,86.5C 42.8333,86.1667 42.6667,85.8333 42.5,85.5C 44.0777,84.7022 45.7444,84.2022 47.5,84C 49.2112,81.4112 51.0445,78.9112 53,76.5C 54.2383,83.4478 56.405,90.1145 59.5,96.5C 62.6871,86.7493 65.1871,76.7493 67,66.5C 69.3202,77.7283 70.8202,89.0617 71.5,100.5C 73.1238,100.64 74.2904,99.9733 75,98.5C 76.3591,93.0618 78.0257,87.7284 80,82.5C 81.2861,87.0959 82.1194,91.7626 82.5,96.5C 83.8221,96.67 84.9887,96.3366 86,95.5C 87.3726,92.5875 88.8726,89.7542 90.5,87C 95.6611,86.0641 100.661,86.5641 105.5,88.5C 111.978,85.7537 111.978,83.0871 105.5,80.5C 104.09,80.8678 103.09,81.7011 102.5,83C 97.7982,83.1717 93.1315,83.6717 88.5,84.5C 87.5857,86.6641 86.419,88.6641 85,90.5C 84,85.5 83,80.5 82,75.5C 81.3333,74.8333 80.6667,74.1667 80,73.5C 77.6157,79.3194 75.6157,85.3194 74,91.5C 72.4152,79.822 70.7486,68.1553 69,56.5C 68.586,56.0426 68.086,55.7093 67.5,55.5C 64.3789,65.6489 61.7123,75.9822 59.5,86.5C 57.4945,81.1257 55.4945,75.7924 53.5,70.5C 51.0426,73.914 48.7093,77.414 46.5,81C 43.5337,81.8952 40.8671,81.3952 38.5,79.5C 30.7321,61.4581 35.7321,48.4581 53.5,40.5 Z"/></g>
<g><path style="opacity:1" fill="#141515" d="M 189.5,65.5 C 194.844,65.334 200.177,65.5006 205.5,66C 206,66.5 206.5,67 207,67.5C 207.667,79.1667 207.667,90.8333 207,102.5C 206.097,103.701 204.931,104.535 203.5,105C 198.798,105.828 194.131,105.662 189.5,104.5C 188.689,103.784 188.022,102.95 187.5,102C 186.198,90.5193 186.198,79.0193 187.5,67.5C 188.522,67.1445 189.189,66.4778 189.5,65.5 Z"/></g>
<g><path style="opacity:1" fill="#131313" d="M 219.5,92.5 C 218.517,96.2984 218.183,100.298 218.5,104.5C 216.167,104.5 213.833,104.5 211.5,104.5C 211.5,91.5 211.5,78.5 211.5,65.5C 217.509,65.3338 223.509,65.5005 229.5,66C 230,66.5 230.5,67 231,67.5C 231.667,75.1667 231.667,82.8333 231,90.5C 230.355,91.646 229.522,92.646 228.5,93.5C 229.833,97.1667 231.167,100.833 232.5,104.5C 229.894,105.652 227.227,105.818 224.5,105C 222.909,100.711 221.242,96.544 219.5,92.5 Z"/></g>
<g><path style="opacity:1" fill="#141414" d="M 248.5,82.5 C 250.833,82.5 253.167,82.5 255.5,82.5C 255.5,90.1667 255.5,97.8333 255.5,105.5C 249.824,105.666 244.157,105.499 238.5,105C 237.667,104.167 236.833,103.333 236,102.5C 235.333,90.8333 235.333,79.1667 236,67.5C 236.5,67 237,66.5 237.5,66C 242.167,65.3333 246.833,65.3333 251.5,66C 252.423,68.0408 252.756,70.2075 252.5,72.5C 249.5,72.5 246.5,72.5 243.5,72.5C 243.5,81.1667 243.5,89.8333 243.5,98.5C 244.833,98.5 246.167,98.5 247.5,98.5C 247.179,92.9738 247.512,87.6405 248.5,82.5 Z"/></g>
<g><path style="opacity:1" fill="#171817" d="M 264.5,65.5 C 267.833,65.5 271.167,65.5 274.5,65.5C 276.184,78.6216 278.517,91.6216 281.5,104.5C 278.894,105.652 276.227,105.818 273.5,105C 272.62,103.644 272.286,102.144 272.5,100.5C 270.5,100.5 268.5,100.5 266.5,100.5C 266.5,102.167 266.5,103.833 266.5,105.5C 263.833,105.5 261.167,105.5 258.5,105.5C 260.71,92.201 262.71,78.8676 264.5,65.5 Z"/></g>
<g><path style="opacity:1" fill="#121313" d="M 293.5,74.5 C 293.995,76.4817 294.495,78.4817 295,80.5C 295.499,75.5111 295.666,70.5111 295.5,65.5C 298.167,65.5 300.833,65.5 303.5,65.5C 303.5,78.8333 303.5,92.1667 303.5,105.5C 300.813,105.664 298.146,105.497 295.5,105C 294.269,101.577 293.269,98.0772 292.5,94.5C 292.005,92.5183 291.505,90.5183 291,88.5C 290.501,94.1569 290.334,99.8236 290.5,105.5C 288.167,105.5 285.833,105.5 283.5,105.5C 283.5,92.1667 283.5,78.8333 283.5,65.5C 286.167,65.5 288.833,65.5 291.5,65.5C 292.01,68.5394 292.677,71.5394 293.5,74.5 Z"/></g>
<g><path style="opacity:1" fill="#8fb0a4" d="M 295.5,65.5 C 295.666,70.5111 295.499,75.5111 295,80.5C 294.495,78.4817 293.995,76.4817 293.5,74.5C 294.167,71.5 294.833,68.5 295.5,65.5 Z"/></g>
<g><path style="opacity:1" fill="#3d4844" d="M 314.5,65.5 C 314.5,78.5 314.5,91.5 314.5,104.5C 319.5,104.5 324.5,104.5 329.5,104.5C 324.36,105.488 319.026,105.821 313.5,105.5C 313.171,91.9895 313.504,78.6562 314.5,65.5 Z"/></g>
<g><path style="opacity:1" fill="#121212" d="M 314.5,65.5 C 320.509,65.3338 326.509,65.5005 332.5,66C 333,66.5 333.5,67 334,67.5C 334.667,79.1667 334.667,90.8333 334,102.5C 332.89,104.037 331.39,104.703 329.5,104.5C 324.5,104.5 319.5,104.5 314.5,104.5C 314.5,91.5 314.5,78.5 314.5,65.5 Z"/></g>
<g><path style="opacity:1" fill="#141515" d="M 340.5,65.5 C 346.631,64.9078 352.464,65.5745 358,67.5C 358.667,78.8333 358.667,90.1667 358,101.5C 357.5,103.333 356.333,104.5 354.5,105C 349.798,105.828 345.131,105.662 340.5,104.5C 339.689,103.784 339.022,102.95 338.5,102C 337.198,90.5193 337.198,79.0193 338.5,67.5C 339.522,67.1445 340.189,66.4778 340.5,65.5 Z"/></g>
<g><path style="opacity:1" fill="#121313" d="M 372.5,77.5 C 372.461,78.7562 372.961,79.7562 374,80.5C 374.499,75.5111 374.666,70.5111 374.5,65.5C 376.833,65.5 379.167,65.5 381.5,65.5C 381.5,78.5 381.5,91.5 381.5,104.5C 378.833,104.5 376.167,104.5 373.5,104.5C 370.117,85.8568 368.784,86.1901 369.5,105.5C 367.167,105.5 364.833,105.5 362.5,105.5C 362.5,92.1667 362.5,78.8333 362.5,65.5C 365.119,65.2317 367.619,65.565 370,66.5C 371.31,70.0704 372.143,73.737 372.5,77.5 Z"/></g>
<g><path style="opacity:1" fill="#3c4843" d="M 374.5,65.5 C 374.666,70.5111 374.499,75.5111 374,80.5C 372.961,79.7562 372.461,78.7562 372.5,77.5C 373.167,73.5 373.833,69.5 374.5,65.5 Z"/></g>
<g><path style="opacity:1" fill="#3e4945" d="M 381.5,65.5 C 382.496,78.6562 382.829,91.9895 382.5,105.5C 379.287,105.81 376.287,105.477 373.5,104.5C 376.167,104.5 378.833,104.5 381.5,104.5C 381.5,91.5 381.5,78.5 381.5,65.5 Z"/></g>
<g><path style="opacity:1" fill="#181919" d="M 391.5,65.5 C 394.5,65.5 397.5,65.5 400.5,65.5C 402.834,78.8344 405.167,92.1678 407.5,105.5C 404.833,105.5 402.167,105.5 399.5,105.5C 399.5,103.833 399.5,102.167 399.5,100.5C 397.167,100.5 394.833,100.5 392.5,100.5C 392.5,102.167 392.5,103.833 392.5,105.5C 389.833,105.5 387.167,105.5 384.5,105.5C 386.577,92.1141 388.911,78.7808 391.5,65.5 Z"/></g>
<g><path style="opacity:1" fill="#111212" d="M 419.5,72.5 C 418.506,82.9869 418.172,93.6536 418.5,104.5C 416.167,104.5 413.833,104.5 411.5,104.5C 411.828,93.6536 411.494,82.9869 410.5,72.5C 408.801,72.6602 407.134,72.4935 405.5,72C 406.249,70.2663 406.749,68.433 407,66.5C 412.114,65.1958 417.281,65.1958 422.5,66.5C 423.167,68.1667 423.833,69.8333 424.5,71.5C 422.955,72.4519 421.288,72.7852 419.5,72.5 Z"/></g>
<g><path style="opacity:1" fill="#3d4844" d="M 427.5,65.5 C 427.5,78.5 427.5,91.5 427.5,104.5C 429.833,104.5 432.167,104.5 434.5,104.5C 432.052,105.473 429.385,105.806 426.5,105.5C 426.171,91.9895 426.504,78.6562 427.5,65.5 Z"/></g>
<g><path style="opacity:1" fill="#101110" d="M 427.5,65.5 C 429.833,65.5 432.167,65.5 434.5,65.5C 434.5,78.5 434.5,91.5 434.5,104.5C 432.167,104.5 429.833,104.5 427.5,104.5C 427.5,91.5 427.5,78.5 427.5,65.5 Z"/></g>
<g><path style="opacity:1" fill="#151616" d="M 444.5,105.5 C 442.097,105.607 440.264,104.607 439,102.5C 438.5,91.505 438.333,80.505 438.5,69.5C 438.511,67.9826 439.177,66.8159 440.5,66C 445.833,65.3333 451.167,65.3333 456.5,66C 457,66.5 457.5,67 458,67.5C 458.667,79.1667 458.667,90.8333 458,102.5C 457.097,103.701 455.931,104.535 454.5,105C 451.183,105.498 447.85,105.665 444.5,105.5 Z"/></g>
<g><path style="opacity:1" fill="#121313" d="M 462.5,65.5 C 465.167,65.5 467.833,65.5 470.5,65.5C 473.746,85.2202 475.079,85.2202 474.5,65.5C 477.167,65.5 479.833,65.5 482.5,65.5C 482.5,78.8333 482.5,92.1667 482.5,105.5C 479.552,105.777 476.719,105.444 474,104.5C 470.124,83.1747 468.624,83.508 469.5,105.5C 467.167,105.5 464.833,105.5 462.5,105.5C 462.5,92.1667 462.5,78.8333 462.5,65.5 Z"/></g>
<g><path style="opacity:1" fill="#161716" d="M 500.5,101.5 C 499.596,102.209 499.263,103.209 499.5,104.5C 496.612,105.01 494.279,104.344 492.5,102.5C 494.341,90.4438 496.507,78.4438 499,66.5C 501.737,65.3895 504.571,65.2228 507.5,66C 510.224,79.07 512.557,92.2367 514.5,105.5C 511.833,105.5 509.167,105.5 506.5,105.5C 506.5,103.833 506.5,102.167 506.5,100.5C 504.265,100.205 502.265,100.539 500.5,101.5 Z"/></g>
<g><path style="opacity:1" fill="#121212" d="M 527.5,77.5 C 527.709,78.9217 528.209,80.255 529,81.5C 529.499,76.1771 529.666,70.8437 529.5,65.5C 531.833,65.5 534.167,65.5 536.5,65.5C 536.5,78.5 536.5,91.5 536.5,104.5C 533.721,104.721 531.054,104.388 528.5,103.5C 527.493,99.1414 526.327,94.808 525,90.5C 524.501,95.4889 524.334,100.489 524.5,105.5C 522.167,105.5 519.833,105.5 517.5,105.5C 517.5,92.1667 517.5,78.8333 517.5,65.5C 520.167,65.5 522.833,65.5 525.5,65.5C 526.167,69.5 526.833,73.5 527.5,77.5 Z"/></g>
<g><path style="opacity:1" fill="#60736c" d="M 529.5,65.5 C 529.666,70.8437 529.499,76.1771 529,81.5C 528.209,80.255 527.709,78.9217 527.5,77.5C 528.167,73.5 528.833,69.5 529.5,65.5 Z"/></g>
<g><path style="opacity:1" fill="#3e4a45" d="M 536.5,65.5 C 537.496,78.6562 537.829,91.9895 537.5,105.5C 533.988,106.055 530.988,105.388 528.5,103.5C 531.054,104.388 533.721,104.721 536.5,104.5C 536.5,91.5 536.5,78.5 536.5,65.5 Z"/></g>
<g><path style="opacity:1" fill="#151515" d="M 540.5,65.5 C 546.893,65.2071 553.227,65.5404 559.5,66.5C 560.192,67.0253 560.692,67.6919 561,68.5C 561.167,74.1667 561.333,79.8333 561.5,85.5C 561.456,91.6728 560.789,97.6728 559.5,103.5C 558.624,104.251 557.624,104.751 556.5,105C 551.177,105.499 545.844,105.666 540.5,105.5C 540.5,92.1667 540.5,78.8333 540.5,65.5 Z"/></g>
<g><path style="opacity:1" fill="#111212" d="M 584.5,72.5 C 583.506,82.9869 583.172,93.6536 583.5,104.5C 581.167,104.5 578.833,104.5 576.5,104.5C 576.828,93.6536 576.494,82.9869 575.5,72.5C 573.801,72.6602 572.134,72.4935 570.5,72C 571.249,70.2663 571.749,68.433 572,66.5C 577.114,65.1958 582.281,65.1958 587.5,66.5C 588.167,68.1667 588.833,69.8333 589.5,71.5C 587.955,72.4519 586.288,72.7852 584.5,72.5 Z"/></g>
<g><path style="opacity:1" fill="#3e4844" d="M 592.5,65.5 C 592.5,78.5 592.5,91.5 592.5,104.5C 594.833,104.5 597.167,104.5 599.5,104.5C 597.052,105.473 594.385,105.806 591.5,105.5C 591.171,91.9895 591.504,78.6562 592.5,65.5 Z"/></g>
<g><path style="opacity:1" fill="#131313" d="M 592.5,65.5 C 598.176,65.3339 603.843,65.5006 609.5,66C 610.416,66.3742 611.25,66.8742 612,67.5C 612.667,74.8333 612.667,82.1667 612,89.5C 611.5,91.3333 610.333,92.5 608.5,93C 610.335,97.0037 611.668,101.17 612.5,105.5C 609.833,105.5 607.167,105.5 604.5,105.5C 601.194,89.4301 599.527,89.0968 599.5,104.5C 597.167,104.5 594.833,104.5 592.5,104.5C 592.5,91.5 592.5,78.5 592.5,65.5 Z"/></g>
<g><path style="opacity:1" fill="#171817" d="M 621.5,65.5 C 624.5,65.5 627.5,65.5 630.5,65.5C 632.834,78.8344 635.167,92.1678 637.5,105.5C 634.833,105.5 632.167,105.5 629.5,105.5C 629.5,103.833 629.5,102.167 629.5,100.5C 627.167,100.5 624.833,100.5 622.5,100.5C 622.5,102.167 622.5,103.833 622.5,105.5C 619.833,105.5 617.167,105.5 614.5,105.5C 616.671,92.1262 619.004,78.7929 621.5,65.5 Z"/></g>
<g><path style="opacity:1" fill="#111212" d="M 640.5,65.5 C 643.119,65.2317 645.619,65.565 648,66.5C 649.154,70.447 649.987,74.447 650.5,78.5C 650.369,79.3764 650.702,80.0431 651.5,80.5C 652.494,75.544 652.827,70.544 652.5,65.5C 654.833,65.5 657.167,65.5 659.5,65.5C 659.5,78.5 659.5,91.5 659.5,104.5C 656.833,104.5 654.167,104.5 651.5,104.5C 650.293,100.213 649.293,95.8797 648.5,91.5C 648.539,90.2438 648.039,89.2438 647,88.5C 646.501,93.8229 646.334,99.1563 646.5,104.5C 644.5,104.5 642.5,104.5 640.5,104.5C 640.5,91.5 640.5,78.5 640.5,65.5 Z"/></g>
<g><path style="opacity:1" fill="#647770" d="M 659.5,65.5 C 660.496,78.6562 660.829,91.9895 660.5,105.5C 657.287,105.81 654.287,105.477 651.5,104.5C 654.167,104.5 656.833,104.5 659.5,104.5C 659.5,91.5 659.5,78.5 659.5,65.5 Z"/></g>
<g><path style="opacity:1" fill="#151616" d="M 665.5,65.5 C 670.5,65.5 675.5,65.5 680.5,65.5C 680.244,67.7925 680.577,69.9592 681.5,72C 678.183,72.4983 674.85,72.665 671.5,72.5C 671.5,75.5 671.5,78.5 671.5,81.5C 675.007,80.9935 678.174,81.6602 681,83.5C 681.667,89.8333 681.667,96.1667 681,102.5C 679.829,103.893 678.329,104.727 676.5,105C 672.789,105.825 669.122,105.659 665.5,104.5C 664.626,102.253 664.292,99.9201 664.5,97.5C 667.5,97.5 670.5,97.5 673.5,97.5C 673.5,94.5 673.5,91.5 673.5,88.5C 669.97,89.0111 666.804,88.3444 664,86.5C 662.954,79.2975 663.454,72.2975 665.5,65.5 Z"/></g>
<g><path style="opacity:1" fill="#3e4946" d="M 685.5,65.5 C 685.5,78.5 685.5,91.5 685.5,104.5C 687.833,104.5 690.167,104.5 692.5,104.5C 690.052,105.473 687.385,105.806 684.5,105.5C 684.171,91.9895 684.504,78.6562 685.5,65.5 Z"/></g>
<g><path style="opacity:1" fill="#121212" d="M 685.5,65.5 C 691.509,65.3338 697.509,65.5005 703.5,66C 704,66.5 704.5,67 705,67.5C 705.667,75.8333 705.667,84.1667 705,92.5C 701.078,94.3124 696.911,94.979 692.5,94.5C 692.5,97.8333 692.5,101.167 692.5,104.5C 690.167,104.5 687.833,104.5 685.5,104.5C 685.5,91.5 685.5,78.5 685.5,65.5 Z"/></g>
<g><path style="opacity:1" fill="#3e4945" d="M 709.5,65.5 C 709.5,78.5 709.5,91.5 709.5,104.5C 714.167,104.5 718.833,104.5 723.5,104.5C 718.695,105.487 713.695,105.821 708.5,105.5C 708.171,91.9895 708.504,78.6562 709.5,65.5 Z"/></g>
<g><path style="opacity:1" fill="#121313" d="M 709.5,65.5 C 711.833,65.5 714.167,65.5 716.5,65.5C 716.5,76.1667 716.5,86.8333 716.5,97.5C 719.167,97.5 721.833,97.5 724.5,97.5C 724.802,100.059 724.468,102.393 723.5,104.5C 718.833,104.5 714.167,104.5 709.5,104.5C 709.5,91.5 709.5,78.5 709.5,65.5 Z"/></g>
<g><path style="opacity:1" fill="#181918" d="M 734.5,65.5 C 737.448,65.2229 740.281,65.5562 743,66.5C 745.385,79.4756 747.551,92.4756 749.5,105.5C 746.833,105.5 744.167,105.5 741.5,105.5C 741.5,103.833 741.5,102.167 741.5,100.5C 739.5,100.5 737.5,100.5 735.5,100.5C 735.5,102.167 735.5,103.833 735.5,105.5C 732.5,105.5 729.5,105.5 726.5,105.5C 728.742,92.043 731.408,78.7097 734.5,65.5 Z"/></g>
<g><path style="opacity:1" fill="#121212" d="M 762.5,77.5 C 763.09,78.766 763.59,80.0993 764,81.5C 764.499,76.1771 764.666,70.8437 764.5,65.5C 766.833,65.5 769.167,65.5 771.5,65.5C 771.5,78.5 771.5,91.5 771.5,104.5C 768.721,104.721 766.054,104.388 763.5,103.5C 762.833,100.833 762.167,98.1667 761.5,95.5C 761.005,93.5183 760.505,91.5183 760,89.5C 759.501,94.8229 759.334,100.156 759.5,105.5C 757.167,105.5 754.833,105.5 752.5,105.5C 752.5,92.1667 752.5,78.8333 752.5,65.5C 755.167,65.5 757.833,65.5 760.5,65.5C 761.167,69.5 761.833,73.5 762.5,77.5 Z"/></g>
<g><path style="opacity:1" fill="#3f4a46" d="M 771.5,65.5 C 772.496,78.6562 772.829,91.9895 772.5,105.5C 768.988,106.055 765.988,105.388 763.5,103.5C 766.054,104.388 768.721,104.721 771.5,104.5C 771.5,91.5 771.5,78.5 771.5,65.5 Z"/></g>
<g><path style="opacity:1" fill="#111211" d="M 788.5,72.5 C 787.506,82.9869 787.172,93.6536 787.5,104.5C 785.167,104.5 782.833,104.5 780.5,104.5C 780.5,93.8333 780.5,83.1667 780.5,72.5C 778.396,72.7989 776.396,72.4656 774.5,71.5C 775.747,69.677 776.414,67.677 776.5,65.5C 781.511,65.3341 786.511,65.5007 791.5,66C 792.24,67.7849 792.907,69.6183 793.5,71.5C 791.955,72.4519 790.288,72.7852 788.5,72.5 Z"/></g>
<g><path style="opacity:1" fill="#171817" d="M 798.5,65.5 C 801.5,65.5 804.5,65.5 807.5,65.5C 809.834,78.8344 812.167,92.1678 814.5,105.5C 811.833,105.5 809.167,105.5 806.5,105.5C 806.5,103.833 806.5,102.167 806.5,100.5C 804.167,100.5 801.833,100.5 799.5,100.5C 799.5,102.167 799.5,103.833 799.5,105.5C 796.833,105.5 794.167,105.5 791.5,105.5C 793.577,92.1141 795.911,78.7808 798.5,65.5 Z"/></g>
<g><path style="opacity:1" fill="#111212" d="M 826.5,72.5 C 825.506,82.9869 825.172,93.6536 825.5,104.5C 823.167,104.5 820.833,104.5 818.5,104.5C 818.828,93.6536 818.494,82.9869 817.5,72.5C 815.801,72.6602 814.134,72.4935 812.5,72C 813.249,70.2663 813.749,68.433 814,66.5C 819.114,65.1958 824.281,65.1958 829.5,66.5C 830.167,68.1667 830.833,69.8333 831.5,71.5C 829.955,72.4519 828.288,72.7852 826.5,72.5 Z"/></g>
<g><path style="opacity:1" fill="#3e4946" d="M 834.5,65.5 C 834.5,78.5 834.5,91.5 834.5,104.5C 836.833,104.5 839.167,104.5 841.5,104.5C 839.052,105.473 836.385,105.806 833.5,105.5C 833.171,91.9895 833.504,78.6562 834.5,65.5 Z"/></g>
<g><path style="opacity:1" fill="#101110" d="M 834.5,65.5 C 836.833,65.5 839.167,65.5 841.5,65.5C 841.5,78.5 841.5,91.5 841.5,104.5C 839.167,104.5 836.833,104.5 834.5,104.5C 834.5,91.5 834.5,78.5 834.5,65.5 Z"/></g>
<g><path style="opacity:1" fill="#151616" d="M 847.5,65.5 C 852.844,65.334 858.177,65.5006 863.5,66C 864,66.5 864.5,67 865,67.5C 865.667,79.1667 865.667,90.8333 865,102.5C 864.097,103.701 862.931,104.535 861.5,105C 857.167,105.667 852.833,105.667 848.5,105C 847.667,104.167 846.833,103.333 846,102.5C 845.333,90.8333 845.333,79.1667 846,67.5C 846.717,66.9558 847.217,66.2891 847.5,65.5 Z"/></g>
<g><path style="opacity:1" fill="#121313" d="M 878.5,94.5 C 878.509,92.6916 878.009,91.0249 877,89.5C 876.501,94.8229 876.334,100.156 876.5,105.5C 874.167,105.5 871.833,105.5 869.5,105.5C 869.5,92.1667 869.5,78.8333 869.5,65.5C 872.167,65.5 874.833,65.5 877.5,65.5C 880.746,85.2202 882.079,85.2202 881.5,65.5C 884.167,65.5 886.833,65.5 889.5,65.5C 889.5,78.8333 889.5,92.1667 889.5,105.5C 886.813,105.664 884.146,105.497 881.5,105C 880.199,101.596 879.199,98.0965 878.5,94.5 Z"/></g>
<g><path style="opacity:1" fill="#3f4945" d="M 640.5,65.5 C 640.5,78.5 640.5,91.5 640.5,104.5C 642.5,104.5 644.5,104.5 646.5,104.5C 646.334,99.1563 646.501,93.8229 647,88.5C 648.039,89.2438 648.539,90.2438 648.5,91.5C 647.514,95.97 647.181,100.637 647.5,105.5C 644.833,105.5 642.167,105.5 639.5,105.5C 639.171,91.9895 639.504,78.6562 640.5,65.5 Z"/></g>
<g><path style="opacity:1" fill="#3e4744" d="M 652.5,65.5 C 652.827,70.544 652.494,75.544 651.5,80.5C 650.702,80.0431 650.369,79.3764 650.5,78.5C 651.167,74.1667 651.833,69.8333 652.5,65.5 Z"/></g>
<g><path style="opacity:1" fill="#62756f" d="M 764.5,65.5 C 764.666,70.8437 764.499,76.1771 764,81.5C 763.59,80.0993 763.09,78.766 762.5,77.5C 763.167,73.5 763.833,69.5 764.5,65.5 Z"/></g>
<g><path style="opacity:1" fill="#60756d" d="M 199.5,72.5 C 198.167,72.5 196.833,72.5 195.5,72.5C 195.5,81.1667 195.5,89.8333 195.5,98.5C 194.507,89.6822 194.173,80.6822 194.5,71.5C 196.415,71.2155 198.081,71.5489 199.5,72.5 Z"/></g>
<g><path style="opacity:1" fill="#bdeada" d="M 199.5,72.5 C 199.5,81.1667 199.5,89.8333 199.5,98.5C 198.167,98.5 196.833,98.5 195.5,98.5C 195.5,89.8333 195.5,81.1667 195.5,72.5C 196.833,72.5 198.167,72.5 199.5,72.5 Z"/></g>
<g><path style="opacity:1" fill="#44514c" d="M 219.5,72.5 C 219.5,76.8333 219.5,81.1667 219.5,85.5C 220.833,85.5 222.167,85.5 223.5,85.5C 222.081,86.4511 220.415,86.7845 218.5,86.5C 218.181,81.6367 218.514,76.97 219.5,72.5 Z"/></g>
<g><path style="opacity:1" fill="#b0d9ca" d="M 219.5,72.5 C 221.167,72.5 222.833,72.5 224.5,72.5C 224.818,77.0323 224.485,81.3656 223.5,85.5C 222.167,85.5 220.833,85.5 219.5,85.5C 219.5,81.1667 219.5,76.8333 219.5,72.5 Z"/></g>
<g><path style="opacity:1" fill="#b7e1d2" d="M 321.5,72.5 C 323.167,72.5 324.833,72.5 326.5,72.5C 326.5,81.1667 326.5,89.8333 326.5,98.5C 324.833,98.5 323.167,98.5 321.5,98.5C 321.5,89.8333 321.5,81.1667 321.5,72.5 Z"/></g>
<g><path style="opacity:1" fill="#60756d" d="M 350.5,72.5 C 349.167,72.5 347.833,72.5 346.5,72.5C 346.5,81.1667 346.5,89.8333 346.5,98.5C 345.507,89.6822 345.173,80.6822 345.5,71.5C 347.415,71.2155 349.081,71.5489 350.5,72.5 Z"/></g>
<g><path style="opacity:1" fill="#bfeadb" d="M 350.5,72.5 C 350.5,81.1667 350.5,89.8333 350.5,98.5C 349.167,98.5 347.833,98.5 346.5,98.5C 346.5,89.8333 346.5,81.1667 346.5,72.5C 347.833,72.5 349.167,72.5 350.5,72.5 Z"/></g>
<g><path style="opacity:1" fill="#4b5954" d="M 410.5,72.5 C 411.494,82.9869 411.828,93.6536 411.5,104.5C 413.833,104.5 416.167,104.5 418.5,104.5C 418.172,93.6536 418.506,82.9869 419.5,72.5C 419.5,83.5 419.5,94.5 419.5,105.5C 416.5,105.5 413.5,105.5 410.5,105.5C 410.5,94.5 410.5,83.5 410.5,72.5 Z"/></g>
<g><path style="opacity:1" fill="#b9e3d4" d="M 548.5,72.5 C 550.167,72.5 551.833,72.5 553.5,72.5C 553.5,81.1667 553.5,89.8333 553.5,98.5C 551.833,98.5 550.167,98.5 548.5,98.5C 548.5,89.8333 548.5,81.1667 548.5,72.5 Z"/></g>
<g><path style="opacity:1" fill="#4b5953" d="M 575.5,72.5 C 576.494,82.9869 576.828,93.6536 576.5,104.5C 578.833,104.5 581.167,104.5 583.5,104.5C 583.172,93.6536 583.506,82.9869 584.5,72.5C 584.5,83.5 584.5,94.5 584.5,105.5C 581.5,105.5 578.5,105.5 575.5,105.5C 575.5,94.5 575.5,83.5 575.5,72.5 Z"/></g>
<g><path style="opacity:1" fill="#8aa89d" d="M 600.5,72.5 C 600.5,76.8333 600.5,81.1667 600.5,85.5C 601.833,85.5 603.167,85.5 604.5,85.5C 603.081,86.4511 601.415,86.7845 599.5,86.5C 599.181,81.6367 599.514,76.97 600.5,72.5 Z"/></g>
<g><path style="opacity:1" fill="#c3edde" d="M 600.5,72.5 C 601.833,72.5 603.167,72.5 604.5,72.5C 604.5,76.8333 604.5,81.1667 604.5,85.5C 603.167,85.5 601.833,85.5 600.5,85.5C 600.5,81.1667 600.5,76.8333 600.5,72.5 Z"/></g>
<g><path style="opacity:1" fill="#8ca99e" d="M 693.5,72.5 C 693.5,77.5 693.5,82.5 693.5,87.5C 694.833,87.5 696.167,87.5 697.5,87.5C 696.081,88.4511 694.415,88.7845 692.5,88.5C 692.179,82.9738 692.512,77.6405 693.5,72.5 Z"/></g>
<g><path style="opacity:1" fill="#c3eede" d="M 693.5,72.5 C 694.833,72.5 696.167,72.5 697.5,72.5C 697.5,77.5 697.5,82.5 697.5,87.5C 696.167,87.5 694.833,87.5 693.5,87.5C 693.5,82.5 693.5,77.5 693.5,72.5 Z"/></g>
<g><path style="opacity:1" fill="#3f4946" d="M 788.5,72.5 C 788.5,83.5 788.5,94.5 788.5,105.5C 785.615,105.806 782.948,105.473 780.5,104.5C 782.833,104.5 785.167,104.5 787.5,104.5C 787.172,93.6536 787.506,82.9869 788.5,72.5 Z"/></g>
<g><path style="opacity:1" fill="#4c5955" d="M 817.5,72.5 C 818.494,82.9869 818.828,93.6536 818.5,104.5C 820.833,104.5 823.167,104.5 825.5,104.5C 825.172,93.6536 825.506,82.9869 826.5,72.5C 826.5,83.5 826.5,94.5 826.5,105.5C 823.5,105.5 820.5,105.5 817.5,105.5C 817.5,94.5 817.5,83.5 817.5,72.5 Z"/></g>
<g><path style="opacity:1" fill="#c2ebdc" d="M 853.5,72.5 C 854.833,72.5 856.167,72.5 857.5,72.5C 857.5,81.1667 857.5,89.8333 857.5,98.5C 856.167,98.5 854.833,98.5 853.5,98.5C 853.5,89.8333 853.5,81.1667 853.5,72.5 Z"/></g>
<g><path style="opacity:1" fill="#bfeadb" d="M 446.5,72.5 C 447.833,72.5 449.167,72.5 450.5,72.5C 450.5,81.1667 450.5,89.8333 450.5,98.5C 449.167,98.5 447.833,98.5 446.5,98.5C 446.5,89.8333 446.5,81.1667 446.5,72.5 Z"/></g>
<g><path style="opacity:1" fill="#8bab9f" d="M 248.5,82.5 C 250.948,81.5269 253.615,81.1936 256.5,81.5C 256.826,89.6841 256.492,97.6841 255.5,105.5C 255.5,97.8333 255.5,90.1667 255.5,82.5C 253.167,82.5 250.833,82.5 248.5,82.5 Z"/></g>
<g><path style="opacity:1" fill="#596c65" d="M 270.5,83.5 C 269.833,84.1667 269.167,84.8333 268.5,85.5C 268.372,83.3453 268.872,81.3453 270,79.5C 270.49,80.7932 270.657,82.1266 270.5,83.5 Z"/></g>
<g><path style="opacity:1" fill="#b5decf" d="M 395.5,82.5 C 397.082,85.8756 397.749,89.5422 397.5,93.5C 396.5,93.5 395.5,93.5 394.5,93.5C 394.942,89.8455 395.276,86.1788 395.5,82.5 Z"/></g>
<g><path style="opacity:1" fill="#a3c5b8" d="M 802.5,82.5 C 804.136,86.2095 804.802,90.2095 804.5,94.5C 803.022,94.762 801.689,94.4287 800.5,93.5C 801.248,89.8433 801.915,86.1766 802.5,82.5 Z"/></g>
<g><path style="opacity:1" fill="#a9d0c2" d="M 270.5,83.5 C 270.423,87.2148 270.756,90.8815 271.5,94.5C 270.022,94.762 268.689,94.4287 267.5,93.5C 268.393,90.9159 268.726,88.2492 268.5,85.5C 269.167,84.8333 269.833,84.1667 270.5,83.5 Z"/></g>
<g><path style="opacity:1" fill="#a0c2b6" d="M 737.5,79.5 C 738.222,79.9175 738.722,80.5842 739,81.5C 739.369,85.8629 739.869,90.1962 740.5,94.5C 739.167,94.5 737.833,94.5 736.5,94.5C 737.329,89.547 737.663,84.547 737.5,79.5 Z"/></g>
<g><path style="opacity:1" fill="#b9e3d4" d="M 504.5,89.5 C 504.5,90.8333 504.5,92.1667 504.5,93.5C 503.5,93.5 502.5,93.5 501.5,93.5C 502.045,90.1869 502.545,86.8536 503,83.5C 504.319,85.2495 504.819,87.2495 504.5,89.5 Z"/></g>
<g><path style="opacity:1" fill="#b6dfd0" d="M 625.5,82.5 C 627.082,85.8756 627.749,89.5422 627.5,93.5C 626.5,93.5 625.5,93.5 624.5,93.5C 624.942,89.8455 625.276,86.1788 625.5,82.5 Z"/></g>
<g><path style="opacity:1" fill="#8eaea3" d="M 292.5,94.5 C 291.833,98.1667 291.167,101.833 290.5,105.5C 290.334,99.8236 290.501,94.1569 291,88.5C 291.505,90.5183 292.005,92.5183 292.5,94.5 Z"/></g>
<g><path style="opacity:1" fill="#8faca1" d="M 878.5,94.5 C 877.833,98.1667 877.167,101.833 876.5,105.5C 876.334,100.156 876.501,94.8229 877,89.5C 878.009,91.0249 878.509,92.6916 878.5,94.5 Z"/></g>
<g><path style="opacity:1" fill="#92b1a5" d="M 761.5,95.5 C 760.833,98.8333 760.167,102.167 759.5,105.5C 759.334,100.156 759.501,94.8229 760,89.5C 760.505,91.5183 761.005,93.5183 761.5,95.5 Z"/></g>
<g><path style="opacity:1" fill="#3f4a46" d="M 219.5,92.5 C 219.5,96.8333 219.5,101.167 219.5,105.5C 216.615,105.806 213.948,105.473 211.5,104.5C 213.833,104.5 216.167,104.5 218.5,104.5C 218.183,100.298 218.517,96.2984 219.5,92.5 Z"/></g>
<g><path style="opacity:1" fill="#4f5e59" d="M 504.5,89.5 C 505.451,90.9187 505.784,92.5853 505.5,94.5C 503.901,94.7678 502.568,94.4345 501.5,93.5C 502.5,93.5 503.5,93.5 504.5,93.5C 504.5,92.1667 504.5,90.8333 504.5,89.5 Z"/></g>
<g><path style="opacity:1" fill="#4c5b55" d="M 500.5,101.5 C 500.5,102.833 500.5,104.167 500.5,105.5C 497.5,105.5 494.5,105.5 491.5,105.5C 491.263,104.209 491.596,103.209 492.5,102.5C 494.279,104.344 496.612,105.01 499.5,104.5C 499.263,103.209 499.596,102.209 500.5,101.5 Z"/></g>
</svg>
