<svg version="1.1" id="Layer_1" xmlns="http://www.w3.org/2000/svg" xmlns:xlink="http://www.w3.org/1999/xlink" x="0px" y="0px"
	 width="100%" viewBox="0 0 536 442" enable-background="new 0 0 536 442" xml:space="preserve">
<path fill="#FEFEFE" opacity="1.000000" stroke="none" 
	d="
M1.000000,158.000000 
	C1.000000,106.679649 1.040031,55.859203 0.908642,5.039195 
	C0.900014,1.701959 1.454773,0.898364 4.959062,0.900618 
	C180.914017,1.013800 356.869049,1.016818 532.824036,0.888319 
	C536.630676,0.885539 537.082825,1.914779 537.080566,5.321993 
	C536.986755,149.785004 536.985168,294.248108 537.088135,438.711121 
	C537.090637,442.208008 536.506042,443.107544 532.790894,443.105011 
	C357.002533,442.984528 181.214127,442.983795 5.425806,443.104950 
	C1.510523,443.107666 0.909248,442.041962 0.913487,438.427948 
	C1.022937,345.118713 1.000000,251.809341 1.000000,158.000000 
z"/>
<path fill="#76231B" opacity="1.000000" stroke="none" 
	d="
M474.893799,229.916153 
	C461.110352,257.509399 441.340942,280.306427 421.595917,303.073151 
	C392.368469,336.773468 360.454926,367.634308 323.758698,393.228760 
	C307.767822,404.381805 291.215057,414.610352 272.678894,421.204468 
	C269.796997,422.229675 267.332214,422.136017 264.504059,421.103180 
	C240.914307,412.488068 220.361359,398.657959 200.559601,383.657043 
	C160.076157,352.988525 125.656921,316.233154 93.816055,276.872406 
	C76.515686,255.486206 61.497101,232.829910 52.769363,206.543091 
	C38.809528,164.497879 38.807976,122.979805 61.569374,83.905518 
	C87.693779,39.057999 128.062851,18.728086 179.535309,20.484468 
	C210.616394,21.545044 238.655548,32.612984 264.765930,48.911972 
	C267.759308,50.780533 269.651825,50.771591 272.676758,48.893139 
	C304.880035,28.895199 339.456909,17.792053 377.902802,20.707594 
	C427.355011,24.457790 472.936951,61.322815 487.227997,108.874306 
	C499.860992,150.908798 493.847534,190.832230 474.893799,229.916153 
z"/>
<path fill="#DC524C" opacity="1.000000" stroke="none" 
	d="
M298.041626,386.045288 
	C291.224426,390.288269 284.474792,393.888397 277.601746,397.282898 
	C274.756866,398.687897 272.554138,398.323700 270.493195,395.980469 
	C265.773499,390.614258 261.203644,385.094574 256.185730,380.020081 
	C252.960464,376.758484 254.042053,374.770630 256.992310,372.429504 
	C264.669769,366.337097 272.369629,360.266205 279.878571,353.969666 
	C292.485382,343.398224 305.019562,332.737579 317.457367,321.967896 
	C330.802856,310.412231 343.583954,298.245819 355.825378,285.522919 
	C358.358582,282.890015 360.835144,280.174347 363.067169,277.287567 
	C365.540955,274.088074 366.244263,270.659393 362.910950,267.456207 
	C359.605042,264.279388 356.215149,264.117615 352.878571,267.791351 
	C345.371735,276.056732 337.754395,284.218140 329.560394,291.785675 
	C312.587280,307.461060 295.420441,322.925140 277.428558,337.445282 
	C267.729095,345.273102 258.032074,353.108856 248.515915,361.156281 
	C245.206924,363.954559 243.149963,363.546997 240.965515,360.012878 
	C235.537750,351.231506 230.252991,342.403656 226.239609,332.836639 
	C225.091537,330.099854 225.533447,328.551575 227.671661,326.933380 
	C245.559601,313.395935 263.049744,299.349091 280.100861,284.783844 
	C296.424194,270.840332 312.423492,256.503235 326.341827,240.056305 
	C328.940979,236.984970 328.943939,233.633072 326.085297,230.641098 
	C323.218109,227.640167 319.048584,227.569199 315.909119,230.741089 
	C309.471039,237.245621 303.455902,244.179214 296.872620,250.527527 
	C281.665619,265.191742 265.509247,278.786835 249.046112,292.016907 
	C241.014877,298.470947 233.023819,304.975372 224.960281,311.388763 
	C220.386520,315.026550 219.518021,314.806396 218.233704,309.191803 
	C216.345978,300.939453 214.770004,292.615784 213.059158,284.322937 
	C212.390411,281.081390 213.298721,278.545624 216.012787,276.468506 
	C233.184143,263.326935 249.924088,249.641113 265.417969,234.552338 
	C273.734863,226.452866 281.403717,217.675674 289.167877,209.027328 
	C292.025513,205.844299 291.579712,201.060867 288.788055,198.631958 
	C285.880585,196.102264 281.748077,196.398987 278.649902,199.858124 
	C269.199921,210.409149 259.360718,220.577866 249.154114,230.389526 
	C238.233215,240.887848 226.172394,250.058640 214.615646,259.816711 
	C212.425400,261.666077 211.051575,261.385742 210.613770,258.427948 
	C210.347153,256.626678 210.088211,254.814957 209.994247,252.999207 
	C209.676559,246.860397 210.257446,240.694611 209.133926,234.572220 
	C208.358078,230.344376 209.705002,227.048218 213.371475,224.241791 
	C241.320129,202.848892 261.519470,175.813141 272.421295,142.130035 
	C276.380676,129.896774 278.459839,117.412621 279.261505,104.513268 
	C279.962860,93.228630 279.183044,81.892082 280.747772,70.646004 
	C281.079498,68.261780 281.724731,66.740906 283.843231,65.480835 
	C306.391724,52.069386 330.139771,42.573509 356.724670,40.752052 
	C389.870544,38.481079 418.577850,48.443623 441.931030,71.795578 
	C461.043243,90.906784 470.720276,114.733665 473.300934,141.746887 
	C474.709900,156.495392 468.538361,168.733459 462.384888,180.921829 
	C452.773438,199.959503 439.077362,215.669968 420.698090,226.940048 
	C414.012878,231.039368 407.057373,234.586716 399.358795,236.376541 
	C388.089661,238.996460 384.744171,235.950150 386.332031,223.923874 
	C387.335114,216.326859 390.418640,209.135635 394.328094,202.518784 
	C404.026978,186.103088 415.076050,170.770416 430.827301,159.455612 
	C432.507965,158.248306 433.435730,157.015396 431.680115,154.995102 
	C423.668182,145.775375 422.121521,134.219620 421.252350,122.834236 
	C420.266144,109.916451 420.439758,96.884102 422.463440,83.996422 
	C423.274445,78.831429 421.050720,74.878975 416.611298,74.127625 
	C412.510254,73.433548 408.645508,76.372147 408.267914,81.388985 
	C406.644531,102.956902 404.274689,124.789162 411.355530,145.694092 
	C413.983795,153.453522 411.621826,156.915268 406.847687,161.999176 
	C391.248962,178.610229 377.846466,196.774933 372.761414,219.646774 
	C371.273102,226.341003 371.238953,233.123260 374.013916,239.717728 
	C377.155121,247.182510 382.369537,250.788956 390.491577,251.103470 
	C407.461639,251.760574 421.323151,244.038025 434.536560,234.772781 
	C443.699554,228.347656 451.745850,220.631165 458.807220,211.916946 
	C459.079010,211.581528 459.628326,211.471054 460.476135,211.036484 
	C460.629242,215.358932 458.158478,218.401031 456.552277,221.583572 
	C447.581116,239.359222 435.512970,255.061691 422.972198,270.381683 
	C405.464691,291.769073 387.036835,312.352356 366.987732,331.401611 
	C345.742767,351.587097 323.298981,370.314056 298.041626,386.045288 
z"/>
<path fill="#CB463E" opacity="1.000000" stroke="none" 
	d="
M77.034294,212.357697 
	C78.820084,211.873734 79.653076,213.195923 80.631889,214.321808 
	C94.178314,229.903732 110.144463,242.000992 129.842163,248.862350 
	C136.630310,251.226868 143.592545,251.566284 150.544144,250.854019 
	C156.685623,250.224762 160.755844,246.106018 163.085495,240.600739 
	C168.065994,228.831161 165.341080,217.434998 160.611404,206.372299 
	C152.801285,188.104431 141.477859,172.213013 127.046394,158.589050 
	C124.055389,155.765396 123.484528,153.260956 125.106865,149.379593 
	C128.259018,141.838242 129.194443,133.768219 130.125961,125.639038 
	C131.577271,112.973763 130.403183,100.416275 129.884628,87.818283 
	C129.776169,85.183189 129.447449,82.496849 128.757721,79.959869 
	C127.669647,75.957672 124.809364,73.393845 120.644722,74.235161 
	C116.979553,74.975571 114.486427,77.779411 115.030067,81.906700 
	C116.624397,94.010712 116.107094,106.164413 116.071297,118.301643 
	C116.037186,129.869644 114.554474,141.160873 108.365868,151.327011 
	C104.454216,157.752777 104.860321,157.322830 110.558754,162.440048 
	C128.473129,178.527283 143.213120,196.914490 150.368073,220.459015 
	C150.967010,222.429947 151.059891,224.379669 151.087372,226.370834 
	C151.242355,237.603638 149.035980,238.870529 137.672287,236.204010 
	C124.309311,233.068375 113.119400,225.552109 102.837029,216.534943 
	C83.745796,199.792801 71.524055,178.919876 64.692131,154.658630 
	C63.207230,149.385529 63.496017,143.964645 64.210571,138.788834 
	C67.952950,111.681404 78.256981,87.675613 98.711891,68.731262 
	C114.265549,54.326187 132.521423,45.479759 153.408463,41.955498 
	C178.936905,37.648094 203.254135,42.161140 226.876419,51.891716 
	C236.129227,55.703159 244.995453,60.244160 253.474838,65.575012 
	C255.819336,67.048981 256.993591,68.694992 257.048828,71.572205 
	C257.268921,83.042870 257.685699,94.510132 258.076813,105.977051 
	C258.790863,126.911758 250.915344,145.403473 241.174240,163.146988 
	C229.505707,184.401321 212.449142,200.867615 192.658279,214.553436 
	C189.738342,216.572678 188.999802,218.776535 189.002304,222.028168 
	C189.026779,253.834702 191.030182,285.461304 199.242874,316.323212 
	C204.093460,334.550842 211.536636,351.803925 222.053162,367.604614 
	C223.985703,370.508209 225.803268,373.488800 227.636917,376.456696 
	C227.764618,376.663391 227.583679,377.060791 227.431976,378.312347 
	C222.052338,374.494873 216.903244,371.094574 212.029480,367.337158 
	C193.974182,353.417664 176.780624,338.437012 160.902908,322.123871 
	C142.019699,302.722809 123.830879,282.662415 107.243034,261.167999 
	C97.677299,248.772736 88.551544,236.181091 81.232048,222.339111 
	C79.605927,219.263916 78.410957,215.960709 77.034294,212.357697 
z"/>
<path fill="#CB463E" opacity="1.000000" stroke="none" 
	d="
M76.984253,212.010101 
	C76.200653,211.592758 75.907333,210.943375 76.155067,210.105164 
	C76.179306,210.023132 76.762589,209.991638 76.778778,210.039902 
	C76.921638,210.465668 76.994835,210.914795 77.069870,211.654968 
	C77.051117,211.952896 77.007401,211.992065 76.984253,212.010101 
z"/>
</svg>